<?xml version="1.0" standalone="no"?>
<!DOCTYPE svg PUBLIC "-//W3C//DTD SVG 20010904//EN"
 "http://www.w3.org/TR/2001/REC-SVG-20010904/DTD/svg10.dtd">
<svg version="1.0" xmlns="http://www.w3.org/2000/svg"
 width="512.000000pt" height="512.000000pt" viewBox="0 0 512.000000 512.000000"
 preserveAspectRatio="xMidYMid meet">
<metadata>
Created by potrace 1.11, written by Peter Selinger 2001-2013
</metadata>
<g transform="translate(0.000000,512.000000) scale(0.100000,-0.100000)"
fill="#000000" stroke="none">
<path d="M2220 5035 l0 -85 -340 0 -340 0 0 -85 0 -85 -175 0 -175 0 0 -85 0
-85 -85 0 -85 0 0 -85 0 -85 -85 0 -85 0 0 -85 0 -85 -85 0 -85 0 0 -85 0 -85
-85 0 -85 0 0 -85 0 -85 -85 0 -85 0 0 -175 0 -175 -85 0 -85 0 0 -340 0 -340
-85 0 -85 0 0 -340 0 -340 85 0 85 0 0 -340 0 -340 85 0 85 0 0 -175 0 -175
85 0 85 0 0 -85 0 -85 85 0 85 0 0 -85 0 -85 85 0 85 0 0 -85 0 -85 85 0 85 0
0 -85 0 -85 85 0 85 0 0 -85 0 -85 175 0 175 0 0 -85 0 -85 255 0 255 0 0 -85
0 -85 510 0 510 0 0 85 0 85 255 0 255 0 0 85 0 85 175 0 175 0 0 85 0 85 85
0 85 0 0 85 0 85 85 0 85 0 0 85 0 85 85 0 85 0 0 85 0 85 85 0 85 0 0 85 0
85 85 0 85 0 0 175 0 175 85 0 85 0 0 255 0 255 85 0 85 0 0 510 0 510 -85 0
-85 0 0 255 0 255 -85 0 -85 0 0 175 0 175 -85 0 -85 0 0 85 0 85 -85 0 -85 0
0 85 0 85 -85 0 -85 0 0 85 0 85 -85 0 -85 0 0 85 0 85 -85 0 -85 0 0 85 0 85
-175 0 -175 0 0 85 0 85 -255 0 -255 0 0 85 0 85 -425 0 -425 0 0 -85z m-340
-510 l0 -85 170 0 170 0 0 -170 0 -170 -170 0 -170 0 0 -85 0 -85 -85 0 -85 0
0 -175 0 -175 -85 0 -85 0 0 -85 0 -85 -345 0 -345 0 0 85 0 85 -85 0 -85 0 0
85 0 85 85 0 85 0 0 175 0 175 85 0 85 0 0 85 0 85 175 0 175 0 0 85 0 85 85
0 85 0 0 85 0 85 170 0 170 0 0 -85z m-510 -1455 l0 -170 -90 0 -90 0 0 -170
0 -170 -85 0 -85 0 0 -85 0 -85 -85 0 -85 0 0 -85 0 -85 -170 0 -170 0 0 510
0 510 430 0 430 0 0 -170z"/>
</g>
</svg>
