<?xml version="1.0" standalone="no"?>
<!DOCTYPE svg PUBLIC "-//W3C//DTD SVG 20010904//EN"
 "http://www.w3.org/TR/2001/REC-SVG-20010904/DTD/svg10.dtd">
<svg version="1.0" xmlns="http://www.w3.org/2000/svg"
 width="70.000000pt" height="70.000000pt" viewBox="0 0 70.000000 70.000000"
 preserveAspectRatio="xMidYMid meet">
<metadata>
Created by potrace 1.11, written by Peter Selinger 2001-2013
</metadata>
<g transform="translate(0.000000,70.000000) scale(0.100000,-0.100000)"
fill="#000000" stroke="none">
<path d="M281 650 c-92 -19 -164 -80 -209 -179 -21 -46 -24 -64 -20 -130 10
-167 129 -281 294 -281 169 0 297 126 298 295 1 192 -173 333 -363 295z m0
-76 l30 -15 -40 -30 c-23 -16 -41 -32 -41 -37 0 -4 -7 -15 -15 -26 -12 -16
-17 -17 -44 -5 -17 8 -31 17 -31 22 0 18 36 60 69 82 44 29 36 28 72 9z m-102
-153 c26 -17 -14 -91 -51 -91 -15 0 -18 8 -18 43 0 24 3 47 7 50 9 10 45 8 62
-2z"/>
</g>
</svg>
